<svg version="1.2" xmlns="http://www.w3.org/2000/svg" viewBox="0 0 150 204" width="150" height="204">
	<style>
		.s0 { fill: #007d34 } 
	</style>
	<path fill-rule="evenodd" class="s0" d="m1.46 0.48l5.86 0.02c0.24 0 0.44 0.2 0.44 0.44l-0.02 4.38c0 0.24-0.2 0.44-0.44 0.44l-5.86-0.02c-0.24 0-0.44-0.2-0.44-0.44l0.02-4.38c0-0.24 0.2-0.44 0.44-0.44z"/>
	<path fill-rule="evenodd" class="s0" d="m15.17 0.5l6.16 0.02c0.23 0 0.42 0.19 0.42 0.42l-0.02 4.4c0 0.23-0.19 0.42-0.42 0.42l-6.16-0.02c-0.23 0-0.42-0.19-0.42-0.42l0.02-4.4c0-0.23 0.19-0.42 0.42-0.42z"/>
	<path fill-rule="evenodd" class="s0" d="m29.15 0.51l6.2 0.02c0.22 0 0.4 0.18 0.4 0.4l-0.02 4.44c0 0.22-0.18 0.4-0.4 0.4l-6.2-0.02c-0.22 0-0.4-0.18-0.4-0.4l0.02-4.44c0-0.22 0.18-0.4 0.4-0.4z"/>
	<path fill-rule="evenodd" class="s0" d="m43.13 0.49l6.22 0.02c0.22 0 0.39 0.17 0.39 0.39v4.48c0 0.21-0.18 0.39-0.39 0.39l-6.22-0.02c-0.22 0-0.39-0.17-0.39-0.39v-4.48c0-0.21 0.18-0.39 0.39-0.39z"/>
	<path fill-rule="evenodd" class="s0" d="m57.14 0.48l6.22 0.02c0.22 0 0.39 0.17 0.39 0.39v4.48c0 0.21-0.18 0.39-0.39 0.39l-6.22-0.02c-0.22 0-0.39-0.17-0.39-0.39v-4.48c0-0.21 0.18-0.39 0.39-0.39z"/>
	<path class="s0" d="m149.98 204h-149.45l0.01-45.94q0-0.65 0.57-0.36 14.54 7.13 30.69 7.19 10.09 0.04 19.72-2.84c25.59-7.63 44.56-28.62 49.42-55.12q1.09-5.93 1.07-19.94-0.01-11.45 0-86.22c0-0.15 0.12-0.27 0.26-0.27h47.46c0.15 0 0.27 0.12 0.27 0.27z"/>
	<path fill-rule="evenodd" class="s0" d="m0.97 14.25h62.78c0.27 0 0.48 0.21 0.48 0.48v8.54c0 0.27-0.21 0.48-0.48 0.48h-62.78c-0.27 0-0.48-0.21-0.48-0.48v-8.54c0-0.27 0.21-0.48 0.48-0.48z"/>
	<path fill-rule="evenodd" class="s0" d="m0.92 30.04h62.96c0.21 0 0.38 0.17 0.38 0.38v8.7c0 0.21-0.17 0.38-0.38 0.38h-62.96c-0.21 0-0.38-0.17-0.38-0.38v-8.7c0-0.21 0.17-0.38 0.38-0.38z"/>
	<path fill-rule="evenodd" class="s0" d="m0.86 45.76h63.02c0.2 0 0.37 0.17 0.37 0.37v8.5c0 0.2-0.17 0.37-0.37 0.37h-63.02c-0.2 0-0.37-0.17-0.37-0.37v-8.5c0-0.2 0.17-0.37 0.37-0.37z"/>
	<path class="s0" d="m217.15 51.25q19.11 0.01 20.83-0.05 1.79-0.04 3.39-2.07c0.21-0.26 0.52-0.41 0.86-0.41h0.99q0.54 0 0.57 0.54l1.09 16.9q0.03 0.41-0.37 0.44l-2.22 0.14q-0.44 0.03-0.53-0.41-0.39-1.92-1.71-5.79-1.82-5.32-7.28-5.46-5.5-0.14-10.69-0.06-0.52 0.01-0.54 0.55-0.07 20.7 0.02 50.92 0.01 4.5 4.69 5.21 3.62 0.55 4.65 0.59 0.48 0.01 0.49 0.49l0.01 1.96q0.01 0.47-0.65 0.49-0.5 0.01-13.62 0.01-13.11 0-13.61-0.02-0.66-0.01-0.65-0.49l0.01-1.96q0.01-0.48 0.49-0.49 1.04-0.03 4.65-0.58 4.68-0.72 4.69-5.21 0.11-30.22 0.05-50.92-0.02-0.55-0.54-0.55-5.19-0.09-10.69 0.05-5.46 0.13-7.28 5.46-1.32 3.87-1.72 5.79-0.08 0.44-0.53 0.41l-2.22-0.14q-0.39-0.03-0.37-0.44l1.1-16.9q0.03-0.54 0.57-0.54h0.99c0.34 0 0.65 0.15 0.86 0.41q1.62 2.02 3.39 2.07 1.72 0.06 20.83 0.06z"/>
	<path class="s0" d="m766.62 115.26q-13.11-0.02-13.62-0.03-0.65-0.02-0.65-0.49l0.02-1.96q0-0.48 0.49-0.49 1.02-0.04 4.65-0.58 4.68-0.72 4.69-5.21 0.12-30.23 0.07-50.93-0.02-0.55-0.54-0.55-5.19-0.09-10.69 0.05-5.47 0.12-7.29 5.45-1.32 3.87-1.72 5.79-0.09 0.44-0.53 0.41l-2.22-0.14q-0.4-0.03-0.37-0.44l1.11-16.9q0.03-0.54 0.57-0.54h0.99c0.33 0 0.65 0.15 0.86 0.41q1.6 2.02 3.39 2.08 1.72 0.04 20.83 0.06 19.12 0.02 20.83-0.04 1.78-0.05 3.4-2.07c0.2-0.26 0.52-0.41 0.86-0.41h0.99q0.54 0 0.57 0.54l1.08 16.9q0.03 0.42-0.37 0.44l-2.22 0.14q-0.44 0.03-0.53-0.41-0.39-1.92-1.71-5.79-1.82-5.33-7.28-5.46-5.5-0.15-10.69-0.07-0.52 0.01-0.54 0.55-0.07 20.71 0 50.93 0.01 4.5 4.69 5.22 3.62 0.54 4.65 0.59 0.48 0 0.49 0.49l0.01 1.96q0.01 0.47-0.65 0.49-0.49 0.01-13.62 0.01z"/>
	<path class="s0" d="m281.55 116.84c-17.95-1.95-30.86-18.55-28.85-37.08 2.01-18.53 18.19-31.97 36.13-30.02 17.95 1.95 30.86 18.55 28.85 37.08-2.01 18.53-18.19 31.97-36.13 30.02zm-18.39-31.57q0.59 6.29 3.02 12.5c3.49 8.95 11.76 16.06 21.82 15.12 10.05-0.94 16.86-9.47 18.63-18.9q1.23-6.56 0.65-12.84-0.6-6.29-3.02-12.5c-3.49-8.94-11.76-16.06-21.82-15.12-10.05 0.94-16.86 9.47-18.63 18.91q-1.23 6.54-0.65 12.83z"/>
	<path class="s0" d="m668.18 88.58c-3.07 0.2-5.29 0.78-5.5 4.18q-0.64 10.3 0.45 19.91 0.06 0.48-0.41 0.6-11.06 2.85-18.47 3.4c-16.87 1.26-33.91-6.71-38.2-24.17q-2.41-9.82 0.45-19.41 4.34-14.43 19.73-20.39 9.47-3.67 19.84-2.82 7.9 0.66 15.01 2.67 0.5 0.14 0.54 0.64l1.51 14.88q0.02 0.26-0.23 0.28l-2.5 0.26q-0.24 0.02-0.29-0.22-2.48-11.29-11.21-13.77-4.35-1.23-8.13-1.1c-15.5 0.52-24.42 11.53-25.42 26.43-0.93 13.7 5.79 28.52 19.95 32.22q8.03 2.1 15.17-0.67 3.23-1.25 3.43-5.26 0.23-4.61 0.05-11.98-0.1-4.17-3.7-5.04c-1.32-0.32-4.29-0.79-6.01-0.71-0.27 0.01-0.49-0.2-0.49-0.47v-2.05q0-0.49 0.49-0.49h24.01q0.49 0 0.49 0.49v1.99c0 0.32-0.25 0.58-0.56 0.6z"/>
	<path class="s0" d="m694.55 92.45q-1.45 3.05-5.01 14.57-0.56 1.84-0.1 2.89c0.81 1.83 4.67 2.24 6.34 2.34q0.47 0.02 0.47 0.49v2.02q0 0.49-0.49 0.49h-20.53q-0.5 0-0.5-0.5v-2q0-0.41 0.4-0.48 2.04-0.37 3.26-0.65c3.55-0.82 5.32-4.26 6.77-7.94q9.47-23.92 20.69-52.42 0.17-0.43 0.6-0.6l2.27-0.9q0.62-0.24 0.84 0.38 14.59 40.84 19.4 54.14 0.97 2.68 2.75 5.05c1.76 2.33 4.51 2.78 7.08 2.92q0.47 0.03 0.47 0.49v2.01c0 0.28-0.22 0.5-0.5 0.5h-23.52q-0.51 0-0.51-0.51v-1.99q0-0.43 0.43-0.5 2.89-0.44 4.25-0.87c1.96-0.64 1.84-2.21 1.28-3.92q-2.31-7.06-5.36-15-0.17-0.46-0.67-0.46h-19.4q-0.5 0-0.71 0.45zm1.78-5.44c-0.07 0.2 0.07 0.41 0.29 0.41l16.74 0.15c0.21 0 0.36-0.21 0.29-0.41l-8.16-23.52c-0.1-0.28-0.49-0.28-0.59-0.01z"/>
	<path class="s0" d="m857 112.2v3.02l-23.04 0.02q-0.46 0-0.46-0.47v-2.04q0-0.49 0.49-0.52c1.46-0.1 5.3-0.46 5.69-2.68q0.14-0.81-0.49-2.65-2.18-6.31-5.12-14.35c-0.12-0.32-0.42-0.53-0.76-0.53h-19.76q-0.29 0-0.4 0.27-3.12 8.4-5.06 15.24-0.95 3.31 2.32 4.06 2.33 0.54 4.05 0.62 0.53 0.03 0.53 0.56v2.01q0 0.49-0.5 0.49h-20.39q-0.59 0-0.59-0.59v-1.9q0-0.65 0.64-0.65 6.35-0.07 9.21-7.24 4.91-12.36 21.11-53.55 0.19-0.48 0.68-0.67l2.22-0.88q0.63-0.25 0.86 0.4 10.45 29.55 20.15 55.91 2.19 5.95 8.62 6.12zm-42-25.21c-0.08 0.21 0.07 0.43 0.29 0.43l16.71 0.15c0.23 0 0.38-0.22 0.31-0.43l-8.15-23.47c-0.1-0.28-0.5-0.29-0.61 0z"/>
	<path class="s0" d="m343.75 88.11q-0.11 10.59 0.06 18.82 0.06 2.58 2.27 4.21 1.16 0.85 5.88 1.06 0.51 0.02 0.51 0.53v2.03q0 0.5-0.49 0.5h-25.18q-0.46 0-0.46-0.46v-2.11q0-0.36 0.36-0.39c3.89-0.29 8.45-0.38 8.47-5.56q0.14-25.92 0.01-47.21c-0.03-4.85-4.16-4.91-7.91-5.28q-0.43-0.04-0.43-0.47v-2.07q0-0.45 0.45-0.45 1.98 0 26.47 0c10.35 0 20.2 4.55 19.91 16.44q-0.29 11.42-11.8 16.4c-0.3 0.13-0.43 0.49-0.27 0.78q7.32 13.48 16.32 23.93 2.41 2.79 6.39 4.29 0.47 0.17 0.47 0.67v1.66q0 0.54-0.54 0.56-9.49 0.35-14.42-3.53-3.15-2.49-7.16-8.79-4.14-6.51-8.12-13.12c-1.99-3.31-5.9-3.15-10.26-2.99q-0.53 0.02-0.53 0.55zm7.07-4.3c10.15-0.66 14.44-8.27 13.22-17.55-1.21-9.16-9.64-12.98-17.93-11.09q-2.31 0.52-2.35 2.84-0.08 5.54 0.02 25.38 0 0.57 0.58 0.6 2.01 0.1 6.46-0.18z"/>
	<path class="s0" d="m446.78 101.58q10.3-25.57 15.69-41.87 1.17-3.55-1.85-4.47-2.14-0.66-4.8-0.9-0.56-0.05-0.56-0.61v-1.99q0-0.49 0.49-0.49h21.26q0.48 0 0.48 0.48v2.04q0 0.55-0.55 0.58c-6.64 0.41-8.29 3.84-10.73 9.65q-10.06 23.84-20.64 51.82-0.16 0.43-0.61 0.43h-2.22q-0.56 0-0.76-0.53-9.87-26.93-21.11-55.3-2.42-6.09-8.42-5.94c-0.39 0.01-0.72-0.31-0.72-0.71v-1.9c0-0.34 0.28-0.62 0.62-0.62h23.14q0.5 0 0.5 0.49v1.98q0 0.57-0.57 0.6-1.78 0.12-3.93 0.64-2.84 0.69-1.84 3.39 9.89 26.74 16.47 43.23 0.33 0.82 0.66 0z"/>
	<path class="s0" d="m502.21 84.76q-0.42 7.69-0.19 16.88 0.13 5.02 0.29 5.67 0.65 2.47 2.81 3.47 1.34 0.62 4.09 0.82 6.35 0.45 11.81-0.3c5.94-0.81 8.69-6.81 10.37-11.78 0.1-0.31 0.42-0.49 0.73-0.42l2.37 0.52q0.29 0.06 0.23 0.35l-3.21 14.68q-0.13 0.6-0.74 0.6h-46.66q-0.37 0-0.37-0.38v-2.15q0-0.45 0.45-0.47c2.4-0.11 7.28-0.28 8.58-3.27 0.48-1.09 0.4-2.41 0.6-3.73q0.11-0.7 0.11-1.53 0.04-28.76-0.03-40.72-0.02-3.24-0.65-5.56c-0.76-2.79-4.81-2.99-7.34-3.14q-0.5-0.03-0.48-0.54l0.06-2.04q0.02-0.47 0.48-0.47h42.93q0.45 0 0.47 0.45l0.87 13.37q0.05 0.71-0.66 0.75l-1.95 0.13q-0.46 0.03-0.56-0.43-0.23-1.1-1.32-4.37-2.1-6.26-8.43-6.18-6.72 0.07-13.44 0.07c-0.79 0-1.43 0.64-1.43 1.43v23q0 0.49 0.5 0.51 9.6 0.11 13.62-0.1c3.83-0.19 5.05-3.42 5.34-6.69q0.05-0.46 0.51-0.46l2.3 0.04q0.48 0.01 0.48 0.49v17.99q0 0.51-0.51 0.51l-2.22-0.02q-0.52-0.01-0.6-0.53c-0.52-3.52-1.32-6.67-5.48-6.9q-1.87-0.1-13.2-0.05-0.5 0-0.53 0.5z"/>
	<path class="s0" d="m560.08 87.55q-0.54 0.01-0.53 0.55-0.11 10.58 0.06 18.81 0.06 2.58 2.26 4.21 1.17 0.85 5.88 1.06 0.51 0.02 0.51 0.53v2.03q0 0.5-0.49 0.5h-25.17q-0.46-0.01-0.46-0.46v-2.11q0-0.36 0.36-0.39c3.89-0.29 8.45-0.38 8.47-5.56q0.14-25.92 0.01-47.19c-0.03-4.85-4.16-4.91-7.91-5.28q-0.43-0.05-0.43-0.47v-2.07q0-0.45 0.45-0.45 1.98 0 26.46 0c10.35 0 20.2 4.55 19.91 16.43q-0.3 11.43-11.8 16.4c-0.3 0.13-0.43 0.49-0.27 0.78q7.32 13.47 16.31 23.92 2.41 2.79 6.39 4.29 0.47 0.17 0.47 0.67v1.66q0 0.54-0.54 0.56-9.48 0.34-14.41-3.53-3.15-2.49-7.16-8.79-4.14-6.51-8.12-13.11c-1.99-3.31-5.9-3.15-10.25-2.99zm6.5-3.71c10.16-0.64 14.47-8.25 13.27-17.55-1.2-9.17-9.63-13.01-17.93-11.14q-2.31 0.52-2.36 2.84-0.09 5.55-0.03 25.41 0 0.57 0.58 0.6 2.01 0.12 6.47-0.16z"/>
	<path fill-rule="evenodd" class="s0" d="m0.93 61.5h62.88c0.24 0 0.43 0.19 0.43 0.43v8.64c0 0.24-0.19 0.43-0.43 0.43h-62.88c-0.24 0-0.43-0.19-0.43-0.43v-8.64c0-0.24 0.19-0.43 0.43-0.43z"/>
	<path fill-rule="evenodd" class="s0" d="m0.97 77.25h62.78c0.27 0 0.48 0.21 0.48 0.48v8.54c0 0.27-0.21 0.48-0.48 0.48h-62.78c-0.27 0-0.48-0.21-0.48-0.48v-8.54c0-0.27 0.21-0.48 0.48-0.48z"/>
	<path fill-rule="evenodd" class="s0" d="m0.99 93h62.78c0.27 0 0.48 0.21 0.48 0.48v8.54c0 0.27-0.21 0.48-0.48 0.48h-62.78c-0.27 0-0.48-0.21-0.48-0.48v-8.54c0-0.27 0.21-0.48 0.48-0.48z"/>
	<path fill-rule="evenodd" class="s0" d="m1.08 108.75h62.52c0.34 0 0.62 0.28 0.62 0.62v8.26c0 0.34-0.28 0.62-0.62 0.62h-62.52c-0.34 0-0.62-0.28-0.62-0.62v-8.26c0-0.34 0.28-0.62 0.62-0.62z"/>
	<path class="s0" d="m406.94 137.76q-0.36 0.76-5.24-0.88-0.49-0.16-0.56-0.69-0.06-0.55 0.19-1.09 0.25-0.54 0.73-0.84 0.44-0.27 0.88 0 4.35 2.74 4 3.5z"/>
	<path class="s0" d="m382.06 138.75c3.46-0.01 5.59 0.25 6.81-0.39q0.56-0.29 0.67 0.33 0.48 2.77 0.17 4.57c-0.04 0.26-0.32 0.43-0.61 0.37q-0.13-0.03-0.3-0.17-0.23-0.19-0.24-0.38-0.44-3.23-4.05-2.85-0.49 0.04-0.5 0.54c-0.1 4.08 0.12 8.12-0.07 12.03q-0.09 1.96 2.01 2.28c0.26 0.04 0.49 0.21 0.61 0.45q0.09 0.2 0.08 0.35-0.03 0.24-0.45 0.29-0.75 0.07-4.07 0.08-3.34 0.01-4.08-0.06-0.42-0.04-0.45-0.28-0.01-0.15 0.08-0.35c0.11-0.25 0.34-0.42 0.6-0.46q2.1-0.33 2-2.29c-0.21-3.91-0.02-7.95-0.14-12.03q-0.02-0.49-0.5-0.54-3.63-0.35-4.04 2.88-0.02 0.18-0.23 0.38-0.17 0.14-0.3 0.17c-0.29 0.06-0.57-0.1-0.62-0.37q-0.32-1.79 0.15-4.57 0.1-0.61 0.67-0.33c1.22 0.63 3.35 0.36 6.8 0.35z"/>
	<path class="s0" d="m595.9 156.25q-3.32 0-4.07-0.06-0.42-0.05-0.45-0.29-0.01-0.15 0.08-0.35c0.11-0.24 0.34-0.41 0.6-0.45q2.1-0.34 2-2.29c-0.21-3.91-0.02-7.95-0.14-12.03q-0.02-0.48-0.51-0.53-3.61-0.36-4.03 2.87-0.01 0.19-0.24 0.38-0.15 0.14-0.29 0.17c-0.29 0.06-0.57-0.1-0.62-0.36q-0.32-1.81 0.15-4.57 0.1-0.63 0.67-0.34c1.22 0.63 3.34 0.36 6.8 0.35 3.46-0.01 5.58 0.25 6.8-0.39q0.57-0.29 0.67 0.33 0.48 2.77 0.17 4.57c-0.04 0.26-0.32 0.43-0.6 0.37q-0.15-0.03-0.3-0.17-0.22-0.19-0.24-0.38-0.44-3.23-4.05-2.85-0.5 0.04-0.5 0.54c-0.1 4.08 0.12 8.12-0.07 12.03q-0.09 1.95 2.01 2.28c0.26 0.03 0.49 0.2 0.61 0.45q0.09 0.2 0.08 0.35-0.03 0.24-0.45 0.28-0.75 0.08-4.08 0.09z"/>
	<path class="s0" d="m342.11 139.77c-2.48 0.41-3.2 3.2-0.88 4.7 1.21 0.79 4.42 2.22 5.5 3.74q1.71 2.4 0.54 4.96c-1.76 3.85-6.52 3.94-10.09 2.64q-0.58-0.21-0.65-0.83l-0.39-3.9c-0.02-0.16 0.08-0.32 0.24-0.37l0.25-0.08q0.48-0.16 0.64 0.25 0.59 1.54 1.67 2.84c1.28 1.55 3.81 2.42 4.9 0.14 1.88-3.92-5.42-5.1-6.79-7.93-1.25-2.57-0.25-5.73 2.47-6.85q2.9-1.19 6.41-0.08c0.31 0.1 0.53 0.36 0.58 0.68q0.32 2.12 0.3 2.45-0.01 2.48-1.3 0.42l-1.06-1.7c-0.5-0.81-1.43-1.23-2.34-1.08z"/>
	<path class="s0" d="m401.01 154.52l1.09 0.69q1.61 1.02-0.32 1.02h-4.27q-3 0-0.31-1.36c0.94-0.47 1.51-1.26 1.91-2.26q2.03-5.09 4.84-12.23 1.51-3.85 2.94 0.04 2.83 7.78 4.75 12.83c0.38 1 1.04 1.34 1.95 1.67 0.25 0.09 0.42 0.33 0.41 0.59q-0.01 0.21-0.01 0.32-0.03 0.42-0.45 0.42h-6.45q-1.96 0-0.35-1.13l0.67-0.47q0.51-0.36 0.28-0.94l-1.09-2.78q-0.18-0.44-0.65-0.44h-3.53q-0.51 0-0.7 0.47l-1.03 2.57c-0.15 0.36-0.01 0.78 0.32 0.99zm3.1-5.51q0.68 0.02 1.31-0.09 0.53-0.08 0.36-0.58-1.33-4.13-1.57-4.13-0.31 0-1.74 4.09-0.17 0.5 0.35 0.59 0.62 0.12 1.29 0.12z"/>
	<path class="s0" d="m498.88 149.27l-1.82-0.4c-0.21-0.05-0.36-0.22-0.38-0.43l-0.05-0.43q-0.02-0.25 0.23-0.25h7.35q1.46 0 0.33 0.93l-0.87 0.73q-0.37 0.3-0.37 0.78v4.96q0 0.4-0.38 0.51-5.29 1.6-9.78 0.24c-4.05-1.24-6.25-4.89-5.86-9.14q0.57-6.28 7.53-8.01 3.17-0.78 7.59 0.29 0.57 0.13 0.63 0.72l0.37 3.7q0.07 0.63-0.56 0.56-0.18-0.01-0.37-0.09-0.31-0.12-0.41-0.43-1.14-3.57-4.53-3.66-3.98-0.12-5.54 4.43c-1.53 4.41 0.39 11.12 6.2 10.93 0.72-0.02 1.29-0.61 1.29-1.33v-3.87q0-0.61-0.6-0.74z"/>
	<path class="s0" d="m572.54 144.44c1.21 0.79 4.42 2.21 5.51 3.72q1.71 2.4 0.55 4.96c-1.75 3.85-6.5 3.95-10.07 2.66q-0.58-0.2-0.65-0.82l-0.4-3.9c-0.02-0.16 0.08-0.32 0.23-0.37l0.25-0.08q0.48-0.16 0.64 0.25 0.6 1.53 1.68 2.83c1.28 1.55 3.81 2.41 4.9 0.13 1.86-3.93-5.43-5.08-6.81-7.91-1.26-2.56-0.27-5.72 2.45-6.85q2.89-1.19 6.4-0.09c0.31 0.09 0.53 0.35 0.58 0.67q0.31 2.12 0.31 2.45-0.01 2.47-1.3 0.42l-1.06-1.69c-0.51-0.8-1.43-1.23-2.34-1.07-2.48 0.41-3.19 3.2-0.87 4.69z"/>
	<path class="s0" d="m800.07 147.49c0 5.06-4.1 9.16-9.16 9.16-5.06 0-9.16-4.1-9.16-9.16 0-5.06 4.1-9.16 9.16-9.16 5.06 0 9.16 4.1 9.16 9.16zm-8.69 7.74c2.66-0.16 4.63-3.75 4.38-8.02-0.24-4.27-2.61-7.61-5.28-7.46-2.66 0.16-4.63 3.75-4.38 8.02 0.24 4.27 2.61 7.61 5.28 7.46z"/>
	<path class="s0" d="m857 154.95v1.22l-7.05-0.04c-0.33 0-0.48-0.42-0.23-0.63l1.32-1.1q0.31-0.26 0.16-0.64l-1.05-2.68q-0.23-0.59-0.86-0.59h-3.57q-0.36 0-0.5 0.34l-1.11 2.77q-0.2 0.5 0.19 0.88 0.2 0.2 0.83 0.42 0.51 0.19 0.63 0.4 0.12 0.21 0.09 0.44-0.09 0.5-0.59 0.5h-5.26c-0.37 0-0.55-0.45-0.29-0.71q0.67-0.66 1.75-1.12c0.28-0.12 0.5-0.35 0.62-0.63l5.48-13.67q1.43-3.55 2.71 0.05 1.99 5.63 4.6 12.67 0.56 1.52 2.13 2.12zm-9.31-5.96q0.66 0 1.28-0.12 0.52-0.09 0.34-0.58-1.42-4.06-1.71-4.06-0.25 0-1.56 4.1-0.16 0.49 0.35 0.58 0.63 0.09 1.3 0.08z"/>
	<path class="s0" d="m205.64 141.26q-0.38 3.21-0.4 6.08-0.04 4.43-0.73 5.77-2.08 4.06-7.62 3.29-5.17-0.72-5.33-6.41-0.09-3.23-0.08-8.62 0-0.52-0.43-0.83-0.59-0.43-1.39-0.69-0.34-0.11-0.44-0.29-0.16-0.27-0.15-0.38 0.05-0.42 0.41-0.42l7.68 0.01c0.37 0 0.53 0.46 0.25 0.69l-1.71 1.43q-0.29 0.24-0.34 0.61-0.24 1.95-0.06 7.24c0.07 2.03 0.59 4.76 2.68 5.47 3.34 1.12 5.31-1.15 5.7-4.26q0.23-1.78 0.01-6.96-0.11-2.62-2.31-3.12-0.32-0.07-0.43-0.38-0.07-0.19-0.02-0.36 0.11-0.38 0.5-0.38h5.98q0.39 0 0.39 0.39v0.39q0 0.18-0.17 0.26l-1.44 0.7q-0.49 0.24-0.55 0.77z"/>
	<path class="s0" d="m220.42 144.39q-0.27 2.13-0.15 6.95 0 0.09-0.02 1.32-0.03 2.15 2.23 2.37 0.52 0.05 0.52 0.58v0.29q0 0.31-0.3 0.32-3.27 0.11-5.42-0.01-2.53-0.13-0.19-1.19 0.27-0.12 0.83-0.64 0.37-0.34 0.43-0.85 0.68-5.62 0.27-11.25c-0.1-1.35-1.05-2-2.24-2.28-0.27-0.06-0.44-0.32-0.41-0.59q0.01-0.06 0.04-0.27 0.05-0.4 0.46-0.4h4.24c0.27 0 0.53 0.12 0.7 0.32l9.08 10.9c0.19 0.23 0.57 0.09 0.56-0.21l-0.3-8.02q-0.03-0.71-0.57-1.14-0.52-0.42-1.76-0.62-0.4-0.06-0.4-0.47v-0.28q0-0.46 0.46-0.46h5.99c0.18 0 0.34 0.11 0.4 0.28q0.16 0.47-0.35 0.73-0.03 0.02-0.07 0.03-1.93 0.59-1.93 2.7-0.01 9.26-0.02 12.25-0.02 3.56-2.29 0.83l-9.42-11.3q-0.31-0.37-0.37 0.11z"/>
	<path class="s0" d="m247.83 138.76q2.75 0 3.62 0.06 1.15 0.08 0.28 0.83-0.41 0.36-1.31 0.76-0.51 0.24-0.57 0.78-0.14 1.14-0.13 6.31 0 5.17 0.14 6.31 0.06 0.55 0.57 0.78 0.9 0.41 1.31 0.75 0.86 0.76-0.28 0.84-0.87 0.06-3.62 0.06-2.74 0.01-3.61-0.05-1.15-0.07-0.29-0.84 0.41-0.35 1.31-0.76 0.51-0.23 0.57-0.77 0.14-1.15 0.14-6.32-0.01-5.16-0.15-6.31-0.06-0.54-0.57-0.77-0.9-0.41-1.31-0.76-0.87-0.76 0.28-0.84 0.87-0.06 3.62-0.06z"/>
	<path class="s0" d="m271.17 150.45l3.58-8.94q0.22-0.53-0.28-0.82-0.96-0.55-1.29-0.74-0.52-0.29-0.55-0.64-0.04-0.56 0.51-0.56h5.46c0.2 0 0.37 0.17 0.37 0.37v0.41c0 0.32-0.23 0.58-0.54 0.63q-1.31 0.2-1.72 1.09-2.49 5.43-6.03 14.95c-0.09 0.23-0.29 0.4-0.54 0.46q-1.01 0.22-1.58-1.33-2.94-8.1-5.46-13.96-0.19-0.43-0.59-0.69l-1.06-0.66q-2.02-1.27 0.36-1.27h6.7q0.48 0 0.48 0.48v0.27q0 0.39-0.36 0.53l-1.15 0.45q-0.48 0.19-0.3 0.67l3.66 9.3q0.16 0.42 0.33 0z"/>
	<path class="s0" d="m293.76 140.94v4.86q0 0.5 0.48 0.62 3 0.75 4.25-1.72 0.38-0.75 0.67 0.03 0.43 1.2 0.24 4.81c-0.02 0.29-0.27 0.5-0.55 0.45q-0.89-0.15-1.12-1.3c-0.08-0.4-0.43-0.68-0.84-0.68h-2.62q-0.48 0-0.48 0.47v5.12c0 0.37 0.24 0.7 0.59 0.82q4.71 1.62 6.41-2.62 0.16-0.41 0.6-0.49 0.15-0.03 0.37 0.07 0.44 0.19 0.34 0.67l-0.82 3.75q-0.11 0.45-0.57 0.45h-11.92q-2.99 0-0.29-1.29l1.07-0.5q0.45-0.22 0.45-0.72v-12.45q0-0.49-0.42-0.78-0.67-0.44-1.24-0.53-0.45-0.07-0.45-0.52v-0.38q0-0.34 0.34-0.34h11.74q0.47 0 0.51 0.46l0.32 3.16q0.05 0.54-0.45 0.76-0.17 0.07-0.39 0.04-0.41-0.07-0.52-0.48c-0.3-1.02-0.74-2.03-1.87-2.27q-1.37-0.3-3.23-0.12-0.6 0.06-0.6 0.65z"/>
	<path class="s0" d="m317.27 148.76q-0.45-0.12-0.45 0.34v4.72c0 0.31 0.19 0.6 0.49 0.71l1.23 0.5q0.36 0.14 0.43 0.51 0.03 0.2-0.02 0.38-0.12 0.34-0.48 0.34h-7.36c-0.31 0-0.51-0.32-0.39-0.6q0.1-0.24 0.17-0.34 0.11-0.15 0.38-0.25 0.66-0.25 1.28-0.59 0.44-0.25 0.45-0.75 0.13-10.16 0.04-12.23-0.04-1.18-1.65-1.5-0.4-0.07-0.45-0.48-0.02-0.11 0.02-0.3 0.08-0.43 0.52-0.45 7.53-0.28 10.77 0.57 2.02 0.53 2.57 2.78 0.9 3.67-2.33 5.34-0.63 0.32-0.31 0.95 2.42 4.72 5.06 7.03 0.91 0.79-0.3 0.79h-2.53c-1.19 0-2.29-0.6-2.94-1.59q-1.55-2.39-2.84-4.9-0.15-0.28-0.56-0.57-0.4-0.29-0.8-0.41zm-0.46-7.84l-0.1 5.8c-0.01 0.43 0.33 0.78 0.76 0.79h0.38c1.71 0.03 3.13-1.4 3.16-3.2l0.02-0.82c0.03-1.8-1.34-3.29-3.06-3.32h-0.38c-0.42-0.01-0.77 0.33-0.78 0.75z"/>
	<path class="s0" d="m358.97 147.5q-0.01-5.17-0.16-6.31-0.06-0.54-0.57-0.77-0.9-0.42-1.32-0.76-0.86-0.76 0.29-0.84 0.87-0.06 3.62-0.07 2.74 0 3.61 0.05 1.15 0.07 0.29 0.84-0.41 0.35-1.31 0.76-0.51 0.24-0.57 0.78-0.13 1.14-0.12 6.31 0.01 5.17 0.15 6.32 0.07 0.54 0.58 0.77 0.89 0.4 1.31 0.76 0.86 0.75-0.29 0.84-0.87 0.06-3.61 0.06-2.75 0.01-3.62-0.05-1.15-0.08-0.29-0.83 0.41-0.36 1.31-0.77 0.51-0.23 0.57-0.77 0.13-1.15 0.13-6.32z"/>
	<path class="s0" d="m438.28 154.5q0.5-0.25 0.5-0.81l-0.01-12.49c0-0.26-0.13-0.5-0.36-0.63l-1.53-0.92q-1.12-0.68 0.02-0.76 6.18-0.4 10.06 0.08c4.83 0.6 8.02 3.49 7.74 8.29-0.56 9.44-10.27 9.36-17.65 8.94q-1.92-0.11-0.2-0.98zm4.17-12.72l0.1 11.36c0.01 0.91 0.75 1.64 1.65 1.63h0.21c3.38-0.03 6.09-3.01 6.06-6.65l-0.02-1.44c-0.03-3.65-2.79-6.58-6.16-6.55h-0.21c-0.91 0.01-1.64 0.75-1.63 1.65z"/>
	<path class="s0" d="m470.57 140.31q-0.6 0.06-0.6 0.65l-0.01 4.85q0 0.5 0.48 0.62 3 0.75 4.25-1.71 0.37-0.75 0.67 0.03 0.43 1.2 0.23 4.8c-0.02 0.29-0.28 0.5-0.55 0.45q-0.89-0.15-1.12-1.3c-0.08-0.4-0.43-0.68-0.84-0.68h-2.61q-0.48 0-0.48 0.46l-0.01 5.11c0 0.37 0.24 0.7 0.59 0.82q4.69 1.63 6.4-2.6 0.16-0.41 0.6-0.49 0.15-0.03 0.37 0.07 0.43 0.19 0.34 0.67l-0.83 3.74q-0.1 0.45-0.57 0.45l-11.89-0.02q-2.99 0-0.29-1.29l1.07-0.5q0.45-0.21 0.45-0.71l0.02-12.43q0-0.49-0.42-0.78-0.66-0.44-1.23-0.53-0.45-0.06-0.45-0.52v-0.38q0-0.34 0.34-0.33l11.71 0.02q0.46 0 0.51 0.45l0.32 3.16q0.05 0.54-0.45 0.76-0.18 0.06-0.39 0.04-0.42-0.09-0.52-0.48c-0.3-1.02-0.74-2.03-1.86-2.27q-1.37-0.31-3.23-0.13z"/>
	<path class="s0" d="m520.54 154.53q4.26 1.28 5.75-2.94 0.17-0.46 0.76-0.32c0.35 0.08 0.57 0.43 0.49 0.78l-0.8 3.65q-0.12 0.55-0.68 0.55h-12.36c-0.38 0-0.55-0.48-0.26-0.72l0.35-0.29q0.36-0.3 0.81-0.35 1.53-0.2 1.58-1.95 0.05-1.6 0.1-9.7 0.02-2.96-1.77-3.19-0.48-0.06-0.48-0.55v-0.37q0-0.38 0.38-0.38h7.04q1.9 0 0.35 1.1-0.33 0.23-1.26 0.58-0.55 0.2-0.55 0.79v12.57q0 0.58 0.55 0.74z"/>
	<path class="s0" d="m538.45 147.5q0-5.18-0.14-6.32-0.07-0.54-0.58-0.77-0.9-0.42-1.31-0.76-0.86-0.77 0.28-0.84 0.87-0.06 3.62-0.07 2.76 0 3.63 0.06 1.14 0.08 0.28 0.84-0.41 0.34-1.31 0.76-0.51 0.23-0.57 0.77-0.14 1.15-0.13 6.33 0 5.16 0.15 6.32 0.06 0.54 0.57 0.77 0.9 0.41 1.31 0.76 0.86 0.77-0.28 0.84-0.87 0.06-3.62 0.06-2.76 0.01-3.62-0.05-1.16-0.08-0.29-0.84 0.41-0.35 1.31-0.76 0.51-0.23 0.57-0.78 0.14-1.14 0.13-6.32z"/>
	<path class="s0" d="m629.45 140.49q-0.49 0.24-0.55 0.77-0.39 3.21-0.41 6.08-0.04 4.44-0.73 5.77-2.1 4.06-7.63 3.29-5.17-0.73-5.32-6.42-0.09-3.23-0.07-8.62-0.01-0.52-0.43-0.83-0.6-0.44-1.39-0.69-0.35-0.11-0.44-0.29-0.16-0.27-0.15-0.38 0.05-0.42 0.41-0.42l7.68 0.02c0.36 0 0.53 0.45 0.25 0.69l-1.71 1.42q-0.3 0.24-0.34 0.61-0.25 1.95-0.07 7.24c0.07 2.03 0.59 4.77 2.68 5.48 3.33 1.12 5.31-1.15 5.7-4.26q0.23-1.79 0.02-6.96-0.12-2.63-2.31-3.12-0.32-0.07-0.43-0.38-0.07-0.19-0.02-0.36 0.11-0.38 0.5-0.38h5.98q0.39 0 0.39 0.39v0.39q0 0.18-0.17 0.26z"/>
	<path class="s0" d="m641.98 153.68v-12.47c0-0.26-0.14-0.5-0.36-0.63l-1.53-0.92q-1.12-0.68 0.02-0.76 6.17-0.41 10.05 0.09c4.82 0.6 8 3.49 7.72 8.28-0.56 9.43-10.26 9.34-17.63 8.92q-1.92-0.11-0.2-0.98l1.43-0.72q0.5-0.25 0.5-0.81zm3.73-12.25l0.08 12.08c0.01 0.69 0.57 1.24 1.26 1.24l0.64-0.01c3.23-0.02 5.83-2.8 5.81-6.22l-0.02-2.22c-0.02-3.41-2.66-6.16-5.89-6.14l-0.64 0.01c-0.69 0-1.25 0.57-1.24 1.26z"/>
	<path class="s0" d="m673.05 147.5q-0.01 5.17 0.12 6.32 0.06 0.54 0.57 0.77 0.9 0.41 1.31 0.77 0.86 0.76-0.29 0.84-0.87 0.05-3.62 0.05-2.75-0.01-3.62-0.07-1.14-0.09-0.28-0.84 0.41-0.36 1.31-0.76 0.52-0.23 0.58-0.77 0.14-1.15 0.15-6.32 0.02-5.17-0.12-6.31-0.06-0.55-0.57-0.78-0.9-0.41-1.31-0.76-0.85-0.77 0.29-0.84 0.87-0.05 3.62-0.05 2.75 0.01 3.62 0.07 1.14 0.08 0.28 0.84-0.41 0.34-1.31 0.75-0.51 0.23-0.58 0.78-0.14 1.14-0.15 6.31z"/>
	<path class="s0" d="m700.01 154.49q0.5-0.25 0.49-0.81l-0.04-12.49c0-0.26-0.13-0.5-0.36-0.63l-1.53-0.91q-1.13-0.69 0.01-0.77 6.18-0.42 10.07 0.06c4.83 0.59 8.02 3.47 7.76 8.27-0.53 9.45-10.25 9.39-17.63 8.99q-1.92-0.11-0.2-0.98zm4.2-12.62l0.1 11.2c0.01 0.95 0.78 1.72 1.73 1.71h0.16c3.36-0.03 6.06-2.98 6.03-6.59l-0.02-1.56c-0.03-3.62-2.78-6.52-6.13-6.49h-0.16c-0.95 0.01-1.72 0.79-1.71 1.73z"/>
	<path class="s0" d="m728 147.51q0-5.18-0.15-6.33-0.06-0.54-0.57-0.77-0.9-0.42-1.32-0.76-0.86-0.76 0.29-0.84 0.87-0.06 3.62-0.07 2.76 0 3.63 0.06 1.14 0.08 0.29 0.84-0.42 0.34-1.32 0.76-0.51 0.23-0.57 0.78-0.13 1.14-0.13 6.32 0.02 5.18 0.15 6.33 0.06 0.54 0.57 0.77 0.91 0.41 1.32 0.76 0.86 0.77-0.29 0.84-0.87 0.06-3.62 0.07-2.76 0-3.62-0.06-1.16-0.08-0.29-0.84 0.41-0.35 1.31-0.76 0.51-0.23 0.57-0.78 0.14-1.14 0.13-6.32z"/>
	<path class="s0" d="m763.39 148.75q-0.45-0.12-0.45 0.34v4.71c0 0.32 0.2 0.6 0.49 0.71l1.23 0.5q0.36 0.14 0.43 0.51 0.03 0.2-0.02 0.38-0.12 0.34-0.48 0.34h-7.35c-0.3 0-0.51-0.32-0.38-0.6q0.09-0.24 0.17-0.34 0.11-0.15 0.37-0.25 0.66-0.25 1.28-0.59 0.44-0.25 0.45-0.75 0.13-10.13 0.04-12.2-0.05-1.19-1.64-1.5-0.4-0.08-0.45-0.47-0.03-0.12 0.02-0.3 0.07-0.43 0.51-0.45 7.51-0.3 10.75 0.57 2.02 0.52 2.56 2.77 0.9 3.67-2.32 5.33-0.63 0.32-0.31 0.95 2.41 4.71 5.05 7.01 0.9 0.79-0.3 0.79h-2.53c-1.18 0-2.28-0.6-2.93-1.59q-1.54-2.38-2.83-4.89-0.15-0.27-0.56-0.57-0.4-0.29-0.8-0.41zm-0.34-8.05l-0.1 6.24c0 0.3 0.24 0.55 0.54 0.56h0.44c1.73 0.03 3.16-1.44 3.18-3.29l0.01-0.66c0.03-1.84-1.34-3.36-3.07-3.39h-0.44c-0.31-0.01-0.56 0.23-0.56 0.54z"/>
	<path class="s0" d="m813.51 143.76q-0.33-0.82-0.38 0.06-0.2 3.12-0.3 6.27 0 0.14-0.21 1.83-0.31 2.61 2.27 3.28 0.37 0.09 0.48 0.46 0.05 0.15 0.02 0.27-0.07 0.31-0.38 0.31h-5.41q-2.21 0-0.33-1.15 1.71-1.03 1.81-3.03 0.07-1.82 0.09-1.91 0.53-5.29 0.58-8.79 0.01-0.49-0.42-0.75l-1.6-0.93q-1.57-0.91 0.25-0.91h4.91q0.54 0 0.73 0.5l4.08 10.38c0.15 0.39 0.71 0.39 0.86 0l4.15-10.34q0.24-0.59 0.87-0.58l4.92 0.06q0.37 0 0.38 0.53 0 0.1-0.05 0.26c-0.04 0.12-0.15 0.2-0.27 0.21q-2.42 0.21-2.07 3.46 0.11 1.05 0.3 10.23 0.01 1.32 1.62 1.42 0.54 0.05 0.56 0.57l0.02 0.31q0.02 0.47-0.46 0.47h-6.96q-0.55 0-0.58-0.54-0.02-0.29 0.1-0.49 0.11-0.17 0.4-0.25 0.65-0.18 1.07-0.43 0.43-0.25 0.43-0.75v-9.39q0-1.98-0.76-0.15l-4.71 11.37c-0.25 0.61-1.12 0.6-1.36-0.01z"/>
</svg>