<svg xmlns="http://www.w3.org/2000/svg" width="300" height="212" viewBox="0 0 300 212" fill="none" role="img" aria-label="Delphee">
  <style>.wm{fill:#2b2f3a}@media (prefers-color-scheme:dark){.wm{fill:#e8eaed}}</style>
  <g transform="translate(108 6) scale(1.7500)">
    <rect width="48" height="48" rx="12" fill="#007d34"/>
    <path d="M24 11.5c.86 0 1.62.5 1.98 1.28l9.1 19.7c.62 1.34-.36 2.86-1.84 2.86H14.76c-1.48 0-2.46-1.52-1.84-2.86l9.1-19.7A2.18 2.18 0 0 1 24 11.5Zm0 5.9-6.36 13.78h12.72L24 17.4Z" fill="#ffffff"/>
  </g>
  <g transform="translate(-1.92 184.01) scale(0.04810 -0.04810)">
    <path class="wm" d="M666 107L666 113L666 1370Q666 1377 662.5 1380.5Q659 1384 651 1384L599 1384Q593 1384 590.5 1386.5Q588 1389 588 1392Q588 1396 590.5 1397.5Q593 1399 598 1400L931 1493Q941 1496 945 1496.5Q949 1497 954 1497Q960 1497 963.5 1493.5Q967 1490 967 1485L967 60Q967 45 972.5 36.5Q978 28 990 25L1037 15Q1043 15 1045.5 12.5Q1048 10 1048 7Q1048 3 1046 1.5Q1044 0 1039 0L692 0Q679 0 672.5 6.5Q666 13 666 26ZM40 415Q40 566 95.5 676Q151 786 247 846.5Q343 907 465 907Q560 907 618 874Q676 841 711 777L688 767Q667 816 630 842Q593 868 540 868Q483 868 439.5 830Q396 792 370.5 699Q345 606 345 441Q345 297 366 209Q387 121 424.5 81Q462 41 513 41Q558 41 602.5 67.5Q647 94 685 152L699 137Q634 54 567.5 17Q501 -20 414 -20Q303 -20 218 32Q133 84 86.5 181.5Q40 279 40 415Z M1909.4 507Q1909.4 497 1903.4 491Q1897.4 485 1884.4 485L1261.4 485L1261.4 506L1594.4 506Q1611.4 506 1611.4 526Q1611.4 715 1569.4 801.5Q1527.4 888 1473.4 888Q1432.4 888 1400.4 854.5Q1368.4 821 1349.9 746Q1331.4 671 1331.4 550Q1331.4 343 1415.9 244Q1500.4 145 1639.4 145Q1746.4 145 1816.9 202Q1887.4 259 1891.4 354Q1891.4 359 1893.9 360Q1896.4 361 1897.4 361Q1900.4 361 1902.4 359Q1904.4 357 1904.4 352Q1901.4 246 1846.9 161.5Q1792.4 77 1700.9 28.5Q1609.4 -20 1493.4 -20Q1363.4 -20 1264.4 36.5Q1165.4 93 1108.9 194.5Q1052.4 296 1052.4 429Q1052.4 575 1108.9 682.5Q1165.4 790 1268.4 848.5Q1371.4 907 1510.4 907Q1632.4 907 1721.9 855Q1811.4 803 1860.4 712Q1909.4 621 1909.4 507Z M2332.4 1485L2332.4 60Q2332.4 45 2338.4 36.5Q2344.4 28 2357.4 25L2403.4 15Q2410.4 15 2412.4 12.5Q2414.4 10 2414.4 7Q2414.4 3 2411.9 1.5Q2409.4 0 2405.4 0L1959.4 0Q1955.4 0 1952.9 1.5Q1950.4 3 1950.4 7Q1950.4 10 1952.9 12.5Q1955.4 15 1962.4 16L2008.4 25Q2021.4 28 2026.9 36.5Q2032.4 45 2032.4 59L2032.4 1370Q2032.4 1377 2028.9 1380.5Q2025.4 1384 2016.4 1384L1965.4 1384Q1959.4 1384 1957.4 1386.5Q1955.4 1389 1955.4 1392Q1955.4 1396 1957.9 1397.5Q1960.4 1399 1963.4 1400L2296.4 1493Q2307.4 1496 2311.4 1496.5Q2315.4 1497 2320.4 1497Q2326.4 1497 2329.4 1493.5Q2332.4 1490 2332.4 1485Z M2813.79 898L2813.79 778L2813.79 769L2813.79 -407Q2813.79 -422 2819.79 -431Q2825.79 -440 2838.79 -443L2888.79 -452Q2894.79 -452 2897.29 -454.5Q2899.79 -457 2899.79 -460Q2899.79 -464 2897.29 -465.5Q2894.79 -467 2889.79 -467L2444.79 -467Q2440.79 -467 2438.29 -465.5Q2435.79 -464 2435.79 -460Q2435.79 -457 2438.29 -454.5Q2440.79 -452 2447.79 -451L2489.79 -442Q2502.79 -439 2508.29 -430.5Q2513.79 -422 2513.79 -408L2513.79 783Q2513.79 790 2510.29 794Q2506.79 798 2497.79 798L2446.79 797Q2440.79 798 2438.79 800Q2436.79 802 2436.79 805Q2436.79 810 2439.29 811.5Q2441.79 813 2444.79 814L2777.79 907Q2788.79 909 2792.79 910Q2796.79 911 2801.79 911Q2807.79 911 2810.79 907Q2813.79 903 2813.79 898ZM2794.79 732L2780.79 747Q2842.79 828 2911.29 867.5Q2979.79 907 3069.79 907Q3181.79 907 3265.29 855Q3348.79 803 3395.79 705.5Q3442.79 608 3442.79 472Q3442.79 322 3387.79 211Q3332.79 100 3236.79 40Q3140.79 -20 3019.79 -20Q2924.79 -20 2867.79 11.5Q2810.79 43 2774.79 113L2795.79 122Q2818.79 72 2854.79 46Q2890.79 20 2939.79 20Q2997.79 20 3042.29 57Q3086.79 94 3111.79 186Q3136.79 278 3136.79 443Q3136.79 592 3115.79 680.5Q3094.79 769 3056.29 808.5Q3017.79 848 2967.79 848Q2924.79 848 2879.79 820Q2834.79 792 2794.79 732Z M3839.59 682L3826.59 695L3865.59 729Q3973.59 825 4062.09 866Q4150.59 907 4222.59 907Q4318.59 907 4379.09 848.5Q4439.59 790 4439.59 662L4439.59 63Q4439.59 46 4446.59 36.5Q4453.59 27 4467.59 24L4509.59 15Q4515.59 15 4518.09 12.5Q4520.59 10 4520.59 7Q4520.59 3 4518.59 1.5Q4516.59 0 4512.59 0L4064.59 0Q4055.59 0 4055.59 7Q4055.59 13 4066.59 15L4113.59 25Q4128.59 27 4134.09 37.5Q4139.59 48 4139.59 63L4139.59 631Q4139.59 706 4108.09 740.5Q4076.59 775 4019.59 775Q3983.59 775 3947.09 760.5Q3910.59 746 3875.59 714ZM3864.59 1485L3864.59 60Q3864.59 45 3870.59 36Q3876.59 27 3889.59 25L3935.59 15Q3946.59 13 3946.59 7Q3946.59 0 3937.59 0L3491.59 0Q3487.59 0 3485.09 1.5Q3482.59 3 3482.59 7Q3482.59 10 3485.09 12.5Q3487.59 15 3494.59 16L3540.59 25Q3553.59 28 3559.09 36.5Q3564.59 45 3564.59 59L3564.59 1370Q3564.59 1377 3561.09 1380.5Q3557.59 1384 3548.59 1384L3497.59 1384Q3491.59 1384 3489.59 1386.5Q3487.59 1389 3487.59 1392Q3487.59 1396 3490.09 1397.5Q3492.59 1399 3495.59 1400L3828.59 1493Q3839.59 1496 3843.59 1496.5Q3847.59 1497 3852.59 1497Q3858.59 1497 3861.59 1493.5Q3864.59 1490 3864.59 1485Z M5391.79 507Q5391.79 497 5385.79 491Q5379.79 485 5366.79 485L4743.79 485L4743.79 506L5076.79 506Q5093.79 506 5093.79 526Q5093.79 715 5051.79 801.5Q5009.79 888 4955.79 888Q4914.79 888 4882.79 854.5Q4850.79 821 4832.29 746Q4813.79 671 4813.79 550Q4813.79 343 4898.29 244Q4982.79 145 5121.79 145Q5228.79 145 5299.29 202Q5369.79 259 5373.79 354Q5373.79 359 5376.29 360Q5378.79 361 5379.79 361Q5382.79 361 5384.79 359Q5386.79 357 5386.79 352Q5383.79 246 5329.29 161.5Q5274.79 77 5183.29 28.5Q5091.79 -20 4975.79 -20Q4845.79 -20 4746.79 36.5Q4647.79 93 4591.29 194.5Q4534.79 296 4534.79 429Q4534.79 575 4591.29 682.5Q4647.79 790 4750.79 848.5Q4853.79 907 4992.79 907Q5114.79 907 5204.29 855Q5293.79 803 5342.79 712Q5391.79 621 5391.79 507Z M6276.79 507Q6276.79 497 6270.79 491Q6264.79 485 6251.79 485L5628.79 485L5628.79 506L5961.79 506Q5978.79 506 5978.79 526Q5978.79 715 5936.79 801.5Q5894.79 888 5840.79 888Q5799.79 888 5767.79 854.5Q5735.79 821 5717.29 746Q5698.79 671 5698.79 550Q5698.79 343 5783.29 244Q5867.79 145 6006.79 145Q6113.79 145 6184.29 202Q6254.79 259 6258.79 354Q6258.79 359 6261.29 360Q6263.79 361 6264.79 361Q6267.79 361 6269.79 359Q6271.79 357 6271.79 352Q6268.79 246 6214.29 161.5Q6159.79 77 6068.29 28.5Q5976.79 -20 5860.79 -20Q5730.79 -20 5631.79 36.5Q5532.79 93 5476.29 194.5Q5419.79 296 5419.79 429Q5419.79 575 5476.29 682.5Q5532.79 790 5635.79 848.5Q5738.79 907 5877.79 907Q5999.79 907 6089.29 855Q6178.79 803 6227.79 712Q6276.79 621 6276.79 507Z"/>
  </g>
</svg>